<svg id="Layer_3" enable-background="new 0 0 64 64" height="512" viewBox="0 0 64 64" width="512" xmlns="http://www.w3.org/2000/svg"><path d="m63 42v-8c0-3.519-2.613-6.432-6-6.92v-5.08h1c.379 0 .725-.214.895-.553s.133-.744-.095-1.047l-3-4c-.189-.252-.485-.4-.8-.4h-14c-.315 0-.611.148-.8.4l-3 4c-.228.303-.264.708-.095 1.047s.516.553.895.553h1v5h-6v-1c0-.552-.448-1-1-1h-1.586l-7.414-7.414v-3.35l1.895-3.789-.009-.005c.067-.134.114-.281.114-.442v-4c0-.552-.448-1-1-1h-10c-.552 0-1 .448-1 1v4c0 .161.047.308.115.443l-.009.005 1.894 3.788v2.764h-9c-.552 0-1 .448-1 1v1h-3c-.552 0-1 .448-1 1v8c0 .552.448 1 1 1h3v18h-3c-.552 0-1 .447-1 1v6c0 .553.448 1 1 1h3.382l-1.276 2.553c-.155.31-.138.678.044.973s.503.474.85.474h4c.197 0 .391-.059.555-.168l5.748-3.832h33.395l5.748 3.832c.163.109.357.168.554.168h4c.347 0 .668-.18.851-.475s.199-.663.044-.973l-1.277-2.552h3.382c.552 0 1-.447 1-1v-6c0-.553-.448-1-1-1h-1.111c1.301-1.272 2.111-3.042 2.111-5zm-2-8v8c0 2.414-1.721 4.434-4 4.899v-17.798c2.279.465 4 2.485 4 4.899zm-19.5-16h13l1.5 2h-16zm7.5 5c0 .551-.449 1-1 1s-1-.449-1-1 .449-1 1-1 1 .449 1 1zm-8-1h4.184c-.112.314-.184.648-.184 1 0 1.654 1.346 3 3 3s3-1.346 3-3c0-.352-.072-.686-.184-1h4.184v5h-14zm14 7v2h-16v2h16v2h-16v2h16v2h-16v2h16v2h-16v2h16v2h-22v-4h3c.552 0 1-.447 1-1v-8c0-.553-.448-1-1-1h-3v-4zm-22 12v-6h2v6zm-17-7h6c.552 0 1-.447 1-1v-2.586l4 4v6.586h-14v-12h2v4c0 .553.448 1 1 1zm5.105-20.447c-.069.138-.105.292-.105.447v18h-4v-18c0-.155-.036-.309-.105-.447l-1.277-2.553h6.764zm7.895 13.447h2v22h-2zm-1.344-1.93c-.381.141-.656.5-.656.93v5.586l-4-4v-7.172zm-12.656-18.07h8v2h-8zm-12 20v-6h2v6zm5.697 30h-2.079l1-2h4.079zm6.303-4h-2v-3c0-.552.449-1 1-1s1 .448 1 1zm8 0h-2v-3c0-.552.449-1 1-1s1 .448 1 1zm34.382 4h-2.079l-3-2h4.079zm3.618-8v4h-36v-3c0-1.654-1.346-3-3-3s-3 1.346-3 3v3h-2v-3c0-1.654-1.346-3-3-3s-3 1.346-3 3v3h-8v-4h3c.552 0 1-.447 1-1v-29h8v8h-3c-.552 0-1 .448-1 1v14c0 .553.448 1 1 1h15v7c0 .553.448 1 1 1h4c.552 0 1-.447 1-1v-1h23z"/></svg>