<svg id="filled_outline" height="512" viewBox="0 0 512 512" width="512" xmlns="http://www.w3.org/2000/svg" data-name="filled outline"><path d="m488 24v464h-464v-456l24-8 40 24 64-24h32l48 24 48-24h32l48 16 32-16 32 16z" fill="#db8638"/><path d="m488 152v336h-464v-344h24l24 24 40-16 24 16 48-32h16l32 32h24l16-16h16l16-16h72l24 16z" fill="#c47220"/><path d="m488 320v168h-464v-176l24-24h32l80 32 24-24h24l16 16h64l40-16h40l72 24z" fill="#b66514"/><g fill="#a2590d"><path d="m64 400 24-24h16l16 16h24v24l-40 32h-16z"/><path d="m184 384v-32l16-16 24 24z"/><path d="m216 408 16 48 64-24-16-32z"/><path d="m304 368 24 24 24-16v-8l-40-16z"/><path d="m408 416 48-24v48l-24 8z"/></g><path d="m492.92285 17.69434a8.00017 8.00017 0 0 0 -6.86328-1.45557l-61.12891 15.28223-29.35254-14.67627a8.00257 8.00257 0 0 0 -7.15624 0l-29.03614 14.51806-44.85547-14.95215a8.00643 8.00643 0 0 0 -2.53027-.41064h-32a7.99934 7.99934 0 0 0 -3.57812.84473l-44.42188 22.21093-44.42188-22.21093a7.99934 7.99934 0 0 0 -3.57812-.84473h-32a7.99392 7.99392 0 0 0 -2.80859.50928l-60.38575 22.64453-36.68945-22.01367a8.00129 8.00129 0 0 0 -6.64648-.7295l-24 8a7.99967 7.99967 0 0 0 -5.46973 7.58936v456a8.00008 8.00008 0 0 0 8 8h464a8.00008 8.00008 0 0 0 8-8v-464a7.99874 7.99874 0 0 0 -3.07715-6.30566zm-445.88379 15.05859 36.84473 22.10693a8.00153 8.00153 0 0 0 6.9248.63086l62.64161-23.49072h28.66113l46.31055 23.15527a8.00257 8.00257 0 0 0 7.15624 0l46.31055-23.15527h28.81348l46.76758 15.58936a8.00329 8.00329 0 0 0 6.10839-.43409l28.42188-14.21093 28.42188 14.21093a8.00675 8.00675 0 0 0 5.51855.606l54.05957-13.51518v109.75391h-77.57812l-21.98438-14.65625a8.00221 8.00221 0 0 0 -4.4375-1.34375h-72a8.00076 8.00076 0 0 0 -5.65723 2.34326l-13.65625 13.65674h-12.68652a8.00076 8.00076 0 0 0 -5.65723 2.34326l-13.65625 13.65674h-17.373l-29.65625-29.65674a8.00076 8.00076 0 0 0 -5.65727-2.34326h-16a8.00221 8.00221 0 0 0 -4.4375 1.34375l-43.5625 29.0415-19.5625-13.0415a7.9962 7.9962 0 0 0 -7.4082-.77148l-35.10254 14.04052-20.26953-20.26953a8.00076 8.00076 0 0 0 -5.65723-2.34326h-16v-98.23389zm432.96094 127.24707v152h-38.70215l-70.76758-23.58936a8.00643 8.00643 0 0 0 -2.53027-.41064h-40a7.99723 7.99723 0 0 0 -2.9707.57227l-38.5703 15.42773h-59.1455l-13.65625-13.65674a8.00076 8.00076 0 0 0 -5.65725-2.34326h-24a8.00076 8.00076 0 0 0 -5.65723 2.34326l-20.26953 20.26953-75.10254-30.04052a7.99723 7.99723 0 0 0 -2.9707-.57227h-32a8.00076 8.00076 0 0 0 -5.65723 2.34326l-10.34277 10.34274v-140.686h12.68652l21.65625 21.65674a7.99656 7.99656 0 0 0 8.62793 1.771l36.09278-14.437 20.499 13.66553a7.99771 7.99771 0 0 0 8.875 0l45.9844-30.65627h10.26464l29.65625 29.65674a8.00076 8.00076 0 0 0 5.65723 2.34326h24a8.00076 8.00076 0 0 0 5.65723-2.34326l13.65625-13.65674h12.68652a8.00076 8.00076 0 0 0 5.65723-2.34326l13.65625-13.65674h66.26464l21.98438 14.65625a8.00221 8.00221 0 0 0 4.4375 1.34375zm-448 320v-164.6861l19.31348-19.3139h27.14552l78.57032 31.42773a7.99656 7.99656 0 0 0 8.62793-1.771l21.65623-21.65673h17.373l13.65625 13.65674a8.00076 8.00076 0 0 0 5.65727 2.34326h64a7.99723 7.99723 0 0 0 2.9707-.57227l38.5703-15.42773h37.16113l70.76758 23.58936a8.00643 8.00643 0 0 0 2.53029.41064h40v152z"/><path d="m144 384h-20.68652l-13.65625-13.65674a8.00076 8.00076 0 0 0 -5.65723-2.34326h-16a8.00076 8.00076 0 0 0 -5.65723 2.34326l-24 24a7.99983 7.99983 0 0 0 -1.498 9.23438l24 48a7.99869 7.99869 0 0 0 7.15523 4.42236h16a8.0027 8.0027 0 0 0 4.99805-1.75293l40-32a8.00055 8.00055 0 0 0 3.00195-6.24707v-24a8.00008 8.00008 0 0 0 -8-8zm-8 28.15479-34.80664 27.84521h-8.249l-19.21-38.42041 17.57912-17.57959h9.373l13.65625 13.65674a8.00076 8.00076 0 0 0 5.65727 2.34326h16z"/><path d="m180.05859 390.96143a7.99931 7.99931 0 0 0 8.05762-.10157l40-24a7.99971 7.99971 0 0 0 1.541-12.5166l-24-24a8.00122 8.00122 0 0 0 -11.31446 0l-16 16a8.00035 8.00035 0 0 0 -2.34275 5.65674v32a8.00012 8.00012 0 0 0 4.05859 6.96143zm11.94141-35.64795 8-8 11.09766 11.09814-19.09766 11.45899z"/><path d="m287.15527 396.42236a8.01 8.01 0 0 0 -8.14746-4.36084l-64 8a8.00127 8.00127 0 0 0 -6.59765 10.46827l16 48a8.00022 8.00022 0 0 0 10.39843 4.96093l64-24a7.99981 7.99981 0 0 0 4.34668-11.06836zm-50.1914 49.17188-10.28809-30.86624 48.7002-6.08789 9.49414 18.98925z"/><path d="m332.4375 398.65625 24-16a7.99943 7.99943 0 0 0 3.5625-6.65625v-8a7.99922 7.99922 0 0 0 -5.0293-7.42773l-40-16a7.99873 7.99873 0 0 0 -10.126 3.85009l-8 16a7.99983 7.99983 0 0 0 1.498 9.23438l24 24a7.9999 7.9999 0 0 0 10.09473.99951zm-18.70312-32.23584 2.1289-4.25879 26.54492 10.61817-13.38867 8.92578z"/><path d="m460.20605 385.19482a8.002 8.002 0 0 0 -7.78417-.35009l-48 24a8.00015 8.00015 0 0 0 -2.82227 11.95507l24 32a7.99778 7.99778 0 0 0 8.93066 2.78956l24-8a7.99967 7.99967 0 0 0 5.46973-7.58936v-48a8.0001 8.0001 0 0 0 -3.79395-6.80518zm-12.20605 49.03907-13.05957 4.353-14.78906-19.71826 27.84863-13.92429z"/><path d="m72 328h16v16h-16z"/><path d="m136 448h16v16h-16z"/><path d="m176 432h16v16h-16z"/><path d="m248 352h16v16h-16z"/><path d="m352 416h16v16h-16z"/><path d="m392 336h16v16h-16z"/><path d="m424 352h16v16h-16z"/><path d="m328 440h16v16h-16z"/><path d="m64 240h24v16h-24z"/><path d="m96 192h24v16h-24z"/><path d="m48 104h24v16h-24z"/><path d="m280 200h24v16h-24z"/><path d="m304 232h24v16h-24z"/><path d="m384 192h24v16h-24z"/><path d="m400 240h24v16h-24z"/><path d="m128 240h16v16h-16z"/><path d="m216 248h16v16h-16z"/><path d="m344 88h16v16h-16z"/><path d="m424 64h16v16h-16z"/><path d="m432 112h16v16h-16z"/><path d="m208 72h16v16h-16z"/><path d="m224 112h16v16h-16z"/><path d="m440 256h16v16h-16z"/><path d="m168 200h24v16h-24z"/><path d="m304 64h24v16h-24z"/><path d="m104.804 70.797h16v16h-16z"/></svg>