<svg id="Capa_1" enable-background="new 0 0 512 512" height="512" viewBox="0 0 512 512" width="512" xmlns="http://www.w3.org/2000/svg"><g><g><path d="m22.682 358.48c-6.899-4.6-8.76-13.901-4.16-20.801l49.922-74.883c4.951-7.412 7.559-16.04 7.559-24.961v-132.835c0-41.353 33.647-75 75-75h30c8.291 0 15 6.709 15 15s-6.709 15-15 15h-30c-24.814 0-45 20.186-45 45v132.836c0 14.868-4.351 29.253-12.598 41.602l-49.922 74.882c-4.522 6.794-13.785 8.811-20.801 4.16z" fill="#474f54"/></g><path d="m211.002 60c-8.291 0-15 6.709-15 15v60c0 8.291 6.709 15 15 15s15-6.709 15-15v-60c0-8.291-6.709-15-15-15z" fill="#d5e8fe"/><path d="m226.002 135v-60c0-8.291-6.709-15-15-15v90c8.291 0 15-6.709 15-15z" fill="#b5dbff"/><path d="m211.002 256h-45v241h45 45v-241z" fill="#d5e8fe"/><path d="m211.002 256h45v241h-45z" fill="#b5dbff"/><path d="m433.351 337.475c-2.813-4.058-7.581-6.086-12.349-6.086s-9.536 2.029-12.349 6.086c-9.814 14.224-32.651 49.351-32.651 68.525 0 24.814 20.186 45 45 45s45-20.186 45-45c0-19.175-22.836-54.302-32.651-68.525z" fill="#97e4fd"/><path d="m466.002 406c0-19.175-22.837-54.302-32.651-68.525-2.813-4.058-7.581-6.086-12.349-6.086v119.611c24.815 0 45-20.186 45-45z" fill="#7dc1fc"/><path d="m301.002 482h-90-90c-8.291 0-15 6.709-15 15s6.709 15 15 15h90 90c8.291 0 15-6.709 15-15s-6.709-15-15-15z" fill="#aae071"/><path d="m316.002 497c0-8.291-6.709-15-15-15h-90v30h90c8.291 0 15-6.709 15-15z" fill="#73ca7a"/><path d="m361.002 150h-75v-15c0-8.291-6.709-15-15-15h-60-60c-8.291 0-15 6.709-15 15v121c0 8.291 6.709 15 15 15h60 60c8.291 0 15-6.709 15-15v-15h75c8.276 0 15 6.724 15 15v30h90v-30c0-57.891-47.109-106-105-106z" fill="#edf5ff"/><path d="m286.002 256v-15h75c8.276 0 15 6.724 15 15v30h90v-30c0-57.891-47.109-106-105-106h-75v-15c0-8.291-6.709-15-15-15h-60v151h60c8.291 0 15-6.709 15-15z" fill="#d5e8fe"/><g><path d="m481.002 301h-120c-8.291 0-15-6.709-15-15s6.709-15 15-15h120c8.291 0 15 6.709 15 15s-6.709 15-15 15z" fill="#b5dbff"/></g><circle cx="211.002" cy="45" fill="#edf5ff" r="45"/><path d="m256.002 45c0-24.814-20.186-45-45-45v90c24.815 0 45-20.186 45-45z" fill="#d5e8fe"/></g></svg>